HIERARCHY
ROOT Root
{
  OFFSET 0 0 0
  CHANNELS 6 Xposition Yposition Zposition Zrotation Xrotation Yrotation
  JOINT Joint1
  {
    OFFSET 0 10 0
    CHANNELS 3 Zrotation Xrotation Yrotation
    End Site
    {
      OFFSET 0.0 0.0 0.0
    }
  }
}
MOTION
Frames: 60
Frame Time: 0.033333
0.0 0.0 0.0 0.0 0.0 0.0 0.0 0 0.0
0.0 0.0 0.0 0.0 0.0 0.0 0.0 0 0.0
0.0 0.0 0.0 0.0 0.0 0.0 0.0 0 0.0
0.0 0.0 0.0 0.0 0.0 0.0 0.0 0 0.0
0.0 0.0 0.0 0.0 0.0 0.0 0.0 0 0.0
0.0 0.0 0.0 0.0 0.0 0.0 0.0 0 0.0
0.0 0.0 0.0 0.0 0.0 0.0 0.0 0 0.0
0.0 0.0 0.0 0.0 0.0 0.0 0.0 0 0.0
0.0 0.0 0.0 0.0 0.0 0.0 0.0 0 0.0
0.0 0.0 0.0 0.0 0.0 0.0 0.0 0 0.0
0.0 0.0 0.0 0.0 0.0 0.0 0.0 0 0.0
0.0 0.0 0.0 0.0 0.0 0.0 0.0 0 0.0
0.0 0.0 0.0 0.0 0.0 0.0 0.0 0 0.0
0.0 0.0 0.0 0.0 0.0 0.0 0.0 0 0.0
0.0 0.0 0.0 0.0 0.0 0.0 0.0 0 0.0
0.0 0.0 0.0 0.0 0.0 0.0 0.0 0 0.0
0.0 0.0 0.0 0.0 0.0 0.0 0.0 0 0.0
0.0 0.0 0.0 0.0 0.0 0.0 0.0 0 0.0
0.0 0.0 0.0 0.0 0.0 0.0 0.0 0 0.0
0.0 0.0 0.0 0.0 0.0 0.0 0.0 0 0.0
0.0 0.0 0.0 0.0 0.0 0.0 0.0 0 0.0
0.0 0.0 0.0 0.0 0.0 0.0 0.0 0 0.0
0.0 0.0 0.0 0.0 0.0 0.0 0.0 0 0.0
0.0 0.0 0.0 0.0 0.0 0.0 0.0 0 0.0
0.0 0.0 0.0 0.0 0.0 0.0 0.0 0 0.0
0.0 0.0 0.0 0.0 0.0 0.0 0.0 0 0.0
0.0 0.0 0.0 0.0 0.0 0.0 0.0 0 0.0
0.0 0.0 0.0 0.0 0.0 0.0 0.0 0 0.0
0.0 0.0 0.0 0.0 0.0 0.0 0.0 0 0.0
0.0 0.0 0.0 0.0 0.0 0.0 0.0 0 0.0
0.0 0.0 0.0 0.0 0.0 0.0 0.0 90 0.0
0.0 0.0 0.0 0.0 0.0 0.0 0.0 90 0.0
0.0 0.0 0.0 0.0 0.0 0.0 0.0 90 0.0
0.0 0.0 0.0 0.0 0.0 0.0 0.0 90 0.0
0.0 0.0 0.0 0.0 0.0 0.0 0.0 90 0.0
0.0 0.0 0.0 0.0 0.0 0.0 0.0 90 0.0
0.0 0.0 0.0 0.0 0.0 0.0 0.0 90 0.0
0.0 0.0 0.0 0.0 0.0 0.0 0.0 90 0.0
0.0 0.0 0.0 0.0 0.0 0.0 0.0 90 0.0
0.0 0.0 0.0 0.0 0.0 0.0 0.0 90 0.0
0.0 0.0 0.0 0.0 0.0 0.0 0.0 90 0.0
0.0 0.0 0.0 0.0 0.0 0.0 0.0 90 0.0
0.0 0.0 0.0 0.0 0.0 0.0 0.0 90 0.0
0.0 0.0 0.0 0.0 0.0 0.0 0.0 90 0.0
0.0 0.0 0.0 0.0 0.0 0.0 0.0 90 0.0
0.0 0.0 0.0 0.0 0.0 0.0 0.0 90 0.0
0.0 0.0 0.0 0.0 0.0 0.0 0.0 90 0.0
0.0 0.0 0.0 0.0 0.0 0.0 0.0 90 0.0
0.0 0.0 0.0 0.0 0.0 0.0 0.0 90 0.0
0.0 0.0 0.0 0.0 0.0 0.0 0.0 90 0.0
0.0 0.0 0.0 0.0 0.0 0.0 0.0 90 0.0
0.0 0.0 0.0 0.0 0.0 0.0 0.0 90 0.0
0.0 0.0 0.0 0.0 0.0 0.0 0.0 90 0.0
0.0 0.0 0.0 0.0 0.0 0.0 0.0 90 0.0
0.0 0.0 0.0 0.0 0.0 0.0 0.0 90 0.0
0.0 0.0 0.0 0.0 0.0 0.0 0.0 90 0.0
0.0 0.0 0.0 0.0 0.0 0.0 0.0 90 0.0
0.0 0.0 0.0 0.0 0.0 0.0 0.0 90 0.0
0.0 0.0 0.0 0.0 0.0 0.0 0.0 90 0.0
0.0 0.0 0.0 0.0 0.0 0.0 0.0 90 0.0
